<?xml version="1.0" encoding="utf-8"?>
<!-- Generator: Adobe Illustrator 26.4.1, SVG Export Plug-In . SVG Version: 6.00 Build 0)  -->
<svg version="1.1" id="b" xmlns="http://www.w3.org/2000/svg" xmlns:xlink="http://www.w3.org/1999/xlink" x="0px" y="0px"
	 viewBox="0 0 30 30" style="enable-background:new 0 0 30 30;" xml:space="preserve">
<path d="M28,13v-1h1v-1h1V9h-1V7h-5V6h-1V1h-2V0h-2v1h-1v1h-1v1h-4V2h-1V1h-1V0H9v1H7v5H6v1H1v2H0v2h1v1h1v1h1v4H2v1H1v1H0v2h1v2h5
	v1h1v5h2v1h2v-1h1v-1h1v-1h4v1h1v1h1v1h2v-1h2v-5h1v-1h5v-2h1v-2h-1v-1h-1v-1h-1v-4H28z M21,17v1h-1v1h-1v1h-1v1h-1h-4h-1v-1h-1v-1
	h-1v-1H9v-1v-4v-1h1v-1h1v-1h1V9h1h4h1v1h1v1h1v1h1v1V17z"/>
</svg>
