<?xml version="1.0" encoding="utf-8"?>
<!-- Generator: Adobe Illustrator 27.2.0, SVG Export Plug-In . SVG Version: 6.00 Build 0)  -->
<svg version="1.1" id="Vrstva_1" xmlns="http://www.w3.org/2000/svg" xmlns:xlink="http://www.w3.org/1999/xlink" x="0px" y="0px"
	 viewBox="0 0 700 700" style="enable-background:new 0 0 700 700;" xml:space="preserve">
<style type="text/css">
	.st0{fill:#FFFFFF;}
</style>
<polygon points="668,424.9 620.9,377.7 644.4,354.2 573.6,283.4 597.2,259.8 430.6,93.2 407,116.8 383.4,93.2 359.9,116.7 
	336.3,93.2 289.1,140.4 265.5,116.8 216.9,165.4 240.5,189 218.3,211.2 194.7,187.6 146.1,236.2 169.7,259.8 147.5,282 123.9,258.4 
	75.3,307 98.9,330.6 75.3,354.2 122.5,401.4 98.9,425 122.4,448.6 98.9,472.1 218.3,591.5 241.9,567.9 289.1,615.1 312.7,591.5 
	359.9,638.7 383.5,615.2 430.6,662.3 "/>
<polygon class="st0" points="265.5,541.5 241.9,565.1 125.4,448.6 147.5,426.4 218.3,497.2 243.3,472.2 101.7,330.6 147.5,284.8 
	194.7,332 219.7,307 172.5,259.8 218.3,214 265.5,261.2 290.5,236.2 243.3,189 289.1,143.2 336.3,190.4 361.3,165.4 337.7,141.8 
	359.9,119.7 383.4,143.2 407,119.6 570.8,283.4 547.2,307 617.9,377.7 594.4,401.3 618,425 430.6,612.3 407,588.7 383.5,612.2 
	336.3,565.1 312.7,588.7 "/>
</svg>
