<?xml version="1.0" encoding="utf-8"?>
<!-- Generator: Adobe Illustrator 27.2.0, SVG Export Plug-In . SVG Version: 6.00 Build 0)  -->
<svg version="1.1" id="Vrstva_1" xmlns="http://www.w3.org/2000/svg" xmlns:xlink="http://www.w3.org/1999/xlink" x="0px" y="0px"
	 viewBox="0 0 700 700" style="enable-background:new 0 0 700 700;" xml:space="preserve">
<style type="text/css">
	.st0{fill:#FFFFFF;}
</style>
<path d="M574.3,248.5L429.7,103.8c-25.7-25.7-67.6-25.7-93.3,0c-9.5,9.4-15.7,21.3-18.1,34.1c-25.9-23.4-66-22.7-90.9,2.2
	c-10.7,10.8-17,24.3-18.8,38.4c-24.6-12.1-55.3-7.9-75.8,12.5c-22.6,22.7-25.3,57.8-8.1,83.4c-13.4,2.2-25.7,8.6-35.5,18.4
	c-25.7,25.7-25.7,67.6,0,93.3l46.4,46.4v52.1c0,72.1,58.7,130.9,130.9,130.9h143.3c42.7,0,82.9-16.6,113.1-46.8l51.4-51.4
	c35.9-35.9,55.7-83.6,55.7-134.4S610.2,284.4,574.3,248.5L574.3,248.5z"/>
<path class="st0" d="M553.8,496.7l-51.4,51.4c-24.7,24.7-57.6,38.3-92.5,38.3H266.6c-56.1,0-101.8-45.7-101.8-101.8v-23.1l33.3,33.4
	c5.7,5.7,14.9,5.7,20.6,0c2.8-2.9,4.2-6.6,4.2-10.3s-1.4-7.4-4.2-10.3L109.8,365.5c-6.9-6.9-10.8-16.2-10.8-26.1s3.8-19.1,10.8-26.1
	c14-13.9,38.2-13.9,52.1,0l36.1,36.1c5.7,5.7,14.9,5.7,20.6,0c2.8-2.9,4.2-6.6,4.2-10.3s-1.4-7.4-4.2-10.3l-65.2-65.2
	c-14.4-14.4-14.4-37.8,0-52.1c14.4-14.4,37.8-14.4,52.1,0l65.2,65.2c5.7,5.7,14.9,5.7,20.6,0c2.9-2.9,4.2-6.6,4.2-10.3
	c0-3.7-1.4-7.4-4.2-10.3L248,212.9c-6.9-6.9-10.8-16.2-10.8-26.1s3.8-19.1,10.8-26.1c14.4-14.4,37.8-14.4,52.1,0l43.4,43.4
	c5.7,5.7,14.9,5.7,20.6,0c2.8-2.9,4.2-6.6,4.2-10.3s-1.4-7.4-4.2-10.3l-7-7c-14.4-14.4-14.4-37.8,0-52.1c14-13.9,38.2-13.9,52.1,0
	L553.8,269c30.4,30.4,47.1,70.8,47.1,113.8C600.9,425.8,584.2,466.3,553.8,496.7L553.8,496.7z"/>
</svg>
