<?xml version="1.0" encoding="utf-8"?>
<!-- Generator: Adobe Illustrator 27.2.0, SVG Export Plug-In . SVG Version: 6.00 Build 0)  -->
<svg version="1.1" id="b" xmlns="http://www.w3.org/2000/svg" xmlns:xlink="http://www.w3.org/1999/xlink" x="0px" y="0px"
	 viewBox="0 0 400 100" style="enable-background:new 0 0 400 100;" xml:space="preserve">
<style type="text/css">
	.st0{fill:none;stroke:#000000;stroke-miterlimit:10;}
</style>
<path class="st0" d="M350,1.3c26.9,0,48.7,21.8,48.7,48.7S376.9,98.7,350,98.7H50C23.1,98.7,1.3,76.9,1.3,50S23.1,1.3,50,1.3H350"/>
<g>
	<path d="M61.1,29.6V47h21.8V29.6H88v40.7h-5.1V51.5H61.1v18.9H56V29.6H61.1z"/>
	<path d="M100.9,29.6v40.7h-5.1V29.6H100.9z"/>
	<path d="M126.3,33.4c-9.7,0-13.8,8.9-13.8,16.6s3,16.6,13.2,16.6c7.3,0,13.3-5.2,13.3-12.9h-13.3v-4.6h18.4v21.2h-3.4l-1.7-5.8
		h-0.1c-3.1,4.3-6.9,6.6-13.2,6.6c-11.8,0-18.3-8.9-18.3-21.2c0-12.2,7.6-21.1,18.9-21.1c10.3,0,15.7,5.4,17.1,13.1h-5.1
		C137.1,36.1,132.4,33.4,126.3,33.4z"/>
	<path d="M156.3,29.6V47h21.8V29.6h5.1v40.7h-5.1V51.5h-21.8v18.9h-5.1V29.6H156.3z"/>
	<path d="M213.3,34.2h-13.6v-4.6h32.2v4.6h-13.6v36.2h-5.1V34.2H213.3z"/>
	<path d="M263,47v4.6h-20.9v14.2h24.3v4.6H237V29.6h28.8v4.6h-23.6V47H263z"/>
	<path d="M288.9,33.4c-9.7,0-13.7,8.4-13.7,16.6c0,8.3,4,16.6,13.7,16.6c8.5,0,11.8-5.8,12.2-10.9h5.1c-0.9,9-7.3,15.5-17.3,15.5
		c-11.2,0-18.9-8.9-18.9-21.2c0-12.2,7.7-21.1,18.9-21.1c10,0,16.3,6.5,17.3,14.2h-5.1C300.4,39.2,297.4,33.4,288.9,33.4z"/>
	<path d="M317.1,29.6V47h21.8V29.6h5.1v40.7h-5.1V51.5h-21.8v18.9H312V29.6H317.1z"/>
</g>
</svg>
