<?xml version="1.0" encoding="utf-8"?>
<!-- Generator: Adobe Illustrator 27.2.0, SVG Export Plug-In . SVG Version: 6.00 Build 0)  -->
<svg version="1.1" id="b" xmlns="http://www.w3.org/2000/svg" xmlns:xlink="http://www.w3.org/1999/xlink" x="0px" y="0px"
	 viewBox="0 0 400 100" style="enable-background:new 0 0 400 100;" xml:space="preserve">
<style type="text/css">
	.st0{fill:none;stroke:#000000;stroke-miterlimit:10;}
</style>
<polyline class="st0" points="367.3,1.3 367.3,2.9 367.3,4.2 368.6,4.2 375.9,4.2 375.9,5.8 375.9,7 377.2,7 378.8,7 378.8,8.6 
	378.8,9.9 380.1,9.9 381.7,9.9 381.7,11.5 381.7,12.8 383,12.8 384.6,12.8 384.6,14.4 384.6,15.7 385.9,15.7 387.5,15.7 387.5,17.3 
	387.5,18.6 388.8,18.6 390.4,18.6 390.4,20 390.4,21.3 391.7,21.3 393.3,21.3 393.3,25.7 393.3,27 394.6,27 396.2,27 396.2,34.3 
	396.2,35.6 397.5,35.6 399.1,35.6 399.1,61.6 397.5,61.6 396.2,61.6 396.2,62.9 396.2,70.2 394.6,70.2 393,70.2 393,71.5 393,75.9 
	391.4,75.9 390.1,75.9 390.1,77.2 390.1,81.6 388.5,81.6 387.2,81.6 387.2,82.9 387.2,84.5 385.6,84.5 384.3,84.5 384.3,85.8 
	384.3,87.4 382.7,87.4 381.4,87.4 381.4,88.7 381.4,90.3 380,90.3 378.7,90.3 378.7,91.6 378.7,93 374.3,93 373,93 373,94.3 
	373,95.9 368.6,95.9 367.3,95.9 367.3,97.2 367.3,98.8 357.2,98.8 42.9,98.8 32.7,98.8 32.7,97.2 32.7,95.9 31.4,95.9 27,95.9 
	27,94.3 27,93 25.7,93 21.3,93 21.3,91.4 21.3,90.1 20,90.1 18.4,90.1 18.4,88.5 18.4,87.2 17.1,87.2 15.5,87.2 15.5,85.6 
	15.5,84.3 14.2,84.3 12.6,84.3 12.6,82.7 12.6,81.4 11.3,81.4 9.9,81.4 9.9,80 9.9,78.7 8.6,78.7 7,78.7 7,74.3 7,73 5.7,73 4.1,73 
	4.1,65.7 4.1,64.4 2.9,64.4 1.3,64.4 1.3,38.4 2.9,38.4 4.2,38.4 4.2,37.1 4.2,29.8 5.8,29.8 7,29.8 7,28.5 7,24.1 8.6,24.1 
	9.9,24.1 9.9,22.8 9.9,18.4 11.5,18.4 12.8,18.4 12.8,17.1 12.8,15.5 14.4,15.5 15.7,15.5 15.7,14.2 15.7,12.6 17.3,12.6 18.6,12.6 
	18.6,11.3 18.6,9.9 20,9.9 21.3,9.9 21.3,8.6 21.3,7 25.7,7 27,7 27,5.7 27,4.1 31.4,4.1 32.7,4.1 32.7,2.9 32.7,1.3 42.8,1.3 
	357.1,1.3 367.3,1.3 "/>
<g>
	<g>
		<path d="M48.5,71.2v-2.5h4.9V34.2h-4.9v-2.5h14.8v2.5h-4.9v34.6h14.8v-2.5h2.5v-2.5h2.5v-2.5h2.5v4.9h-2.5v4.9L48.5,71.2
			L48.5,71.2z"/>
		<path d="M91.7,68.8v-2.5h-2.5v-2.5h-2.5v-4.9h-2.5V44.1h2.5v-4.9h2.5v-2.5h2.5v-2.5h4.9v2.5h-2.5v2.5h-2.5v4.9h-2.5v14.8h2.5v4.9
			h2.5v2.5h2.5v2.5H91.7z M96.6,34.2v-2.5H109v2.5H96.6z M96.6,71.2v-2.5H109v2.5H96.6z M109,68.8v-2.5h2.5v-2.5h2.5v-4.9h2.5V44.1
			H114v-4.9h-2.5v-2.5H109v-2.5h4.9v2.5h2.5v2.5h2.5v4.9h2.5v14.8h-2.5v4.9h-2.5v2.5h-2.5v2.5H109z"/>
		<path d="M136.2,71.2v-7.4h-2.5v-7.4h-2.5V49h-2.5v-7.4h-2.5v-7.4h-4.9v-2.5h34.6v2.5h-7.4v7.4h2.5V49h2.5v7.4h2.5v7.4h2.5v7.4
			h-4.9v-7.4H151v-7.4h-2.5V49H146v-7.4h-2.5v-7.4h-12.4v7.4h2.5V49h2.5v7.4h2.5v7.4h2.5v7.4C141.1,71.2,136.2,71.2,136.2,71.2z
			 M141.1,63.8v-7.4h2.5v7.4H141.1z M143.6,56.4V49h2.5v7.4H143.6z M158.4,63.8v-7.4h2.5v7.4H158.4z M165.8,41.6v-7.4h-4.9v-2.5
			h12.4v2.5h-4.9v7.4H165.8z M160.9,56.4V49h2.5v7.4H160.9z M163.3,49v-7.4h2.5V49H163.3z"/>
		<path d="M199.2,71.2v-2.5h4.9V34.2h-9.9v2.5h-2.5v2.5h-2.5v2.5h-2.5v-4.9h2.5v-7.4h2.5v2.5h32.1v-2.5h2.5v7.4h-2.5v4.9h-2.5v-7.4
			h-12.4v34.6h4.9v2.5h-14.6L199.2,71.2L199.2,71.2z"/>
		<path d="M230.1,71.2v-2.5h4.9V34.2h-4.9v-2.5h27.2v4.9h2.5v4.9h-2.5V39h-2.5v-2.5h-2.5V34h-12.4v15h12.4v-4.9h2.5v12.4h-2.5v-4.9
			h-12.4v17.3h14.8v-2.5h2.5v-2.5h2.5v-2.5h2.5v4.9h-2.5v4.9H230.1z"/>
		<path d="M273.3,68.8v-2.5h-2.5v-2.5h-2.5v-4.9h-2.5V44.1h2.5v-4.9h2.5v-2.5h2.5v-2.5h4.9v2.5h-2.5v2.5h-2.5v4.9h-2.5v14.8h2.5v4.9
			h2.5v2.5h2.5v2.5H273.3z M298,41.6v-2.5h-2.5v-2.5H293v-2.5h-14.8v-2.5H298v4.9h2.5v4.9H298V41.6z M278.3,71.2v-2.5h14.8v-2.5h2.5
			v-2.5h2.5v-2.5h2.5v4.9H298V71h-19.7V71.2z"/>
		<path d="M305.4,71.2v-2.5h4.9V34.2h-4.9v-2.5h14.8v2.5h-4.9V49h17.3V34.2h-4.9v-2.5h14.8v2.5h-4.9v34.6h4.9v2.5h-14.8v-2.5h4.9
			V51.5h-17.3v17.3h4.9v2.5h-14.8V71.2z"/>
	</g>
</g>
</svg>
