<?xml version="1.0" encoding="utf-8"?>
<!-- Generator: Adobe Illustrator 26.4.1, SVG Export Plug-In . SVG Version: 6.00 Build 0)  -->
<svg version="1.1" id="b" xmlns="http://www.w3.org/2000/svg" xmlns:xlink="http://www.w3.org/1999/xlink" x="0px" y="0px"
	 viewBox="0 0 100 100" style="enable-background:new 0 0 100 100;" xml:space="preserve">
<g>
	<polygon points="95,30 95,25 95,20 90,20 90,15 85,15 85,10 80,10 80,5 75,5 70,5 70,0 65,0 60,0 55,0 50,0 45,0 40,0 35,0 30,0 
		30,5 25,5 20,5 20,10 15,10 15,15 10,15 10,20 5,20 5,25 5,30 0,30 0,35 0,40 0,45 0,50 0,55 0,60 0,65 0,70 5,70 5,75 5,80 10,80 
		10,85 15,85 15,90 20,90 20,95 25,95 30,95 30,100 35,100 40,100 45,100 50,100 55,100 60,100 65,100 70,100 70,95 75,95 80,95 
		80,90 85,90 85,85 90,85 90,80 95,80 95,75 95,70 100,70 100,65 100,60 100,55 100,50 100,45 100,40 100,35 100,30 	"/>
</g>
</svg>
