<?xml version="1.0" encoding="utf-8"?>
<!-- Generator: Adobe Illustrator 26.4.1, SVG Export Plug-In . SVG Version: 6.00 Build 0)  -->
<svg version="1.1" id="Vrstva_1" xmlns="http://www.w3.org/2000/svg" xmlns:xlink="http://www.w3.org/1999/xlink" x="0px" y="0px"
	 viewBox="0 0 400 400" style="enable-background:new 0 0 400 400;" xml:space="preserve">
<polygon points="93.8,210.5 93.8,168.6 104.3,168.6 104.3,137 114.8,137 114.8,126.5 125.3,126.5 125.3,116 135.8,116 135.8,105.5 
	167.4,105.5 167.4,94.9 199.2,94.9 199.2,126.5 220.3,126.5 220.3,116 241.4,116 241.4,105.5 262.5,105.5 262.5,94.9 273,94.9 
	273,84.3 294.1,84.3 294.1,73.8 304.6,73.8 304.6,52.7 294.1,52.7 294.1,42.2 273,42.2 273,31.6 251.9,31.6 251.9,21.1 241.4,21.1 
	241.4,10.5 220.3,10.5 220.3,0 199.2,0 199.2,21.1 157,21.1 157,31.6 125.4,31.6 125.4,42.1 104.3,42.1 104.3,52.6 93.8,52.6 
	93.8,63.1 83.2,63.1 83.2,73.6 72.7,73.6 72.7,84.1 62.1,84.1 62.1,94.6 51.6,94.6 51.6,105.1 41.1,105.1 41.1,126.2 30.5,126.2 
	30.5,157.8 20,157.8 20,210.5 30.5,210.5 "/>
<polygon points="306.2,189.5 306.2,231.4 295.7,231.4 295.7,263 285.2,263 285.2,273.5 274.7,273.5 274.7,284 264.2,284 
	264.2,294.5 232.6,294.5 232.6,305.1 200.8,305.1 200.8,273.5 179.7,273.5 179.7,284 158.6,284 158.6,294.5 137.5,294.5 
	137.5,305.1 127,305.1 127,315.7 105.9,315.7 105.9,326.2 95.4,326.2 95.4,347.3 105.9,347.3 105.9,357.8 127,357.8 127,368.4 
	148.1,368.4 148.1,378.9 158.6,378.9 158.6,389.5 179.7,389.5 179.7,400 200.8,400 200.8,378.9 243,378.9 243,368.4 274.6,368.4 
	274.6,357.9 295.7,357.9 295.7,347.4 306.2,347.4 306.2,336.9 316.8,336.9 316.8,326.4 327.3,326.4 327.3,315.9 337.9,315.9 
	337.9,305.4 348.4,305.4 348.4,294.9 358.9,294.9 358.9,273.8 369.5,273.8 369.5,242.2 380,242.2 380,189.5 369.5,189.5 "/>
<rect x="30.8" y="210.5" width="44" height="20.4"/>
<rect x="325.9" y="169.1" width="44" height="20.4"/>
</svg>
