<?xml version="1.0" encoding="utf-8"?>
<!-- Generator: Adobe Illustrator 26.5.0, SVG Export Plug-In . SVG Version: 6.00 Build 0)  -->
<svg version="1.1" id="Vrstva_1" xmlns="http://www.w3.org/2000/svg" xmlns:xlink="http://www.w3.org/1999/xlink" x="0px" y="0px"
	 viewBox="0 0 400 400" style="enable-background:new 0 0 400 400;" xml:space="preserve">
<path d="M38.5,348.9H3.1c-1.7,0-3.1-1.7-3.1-3.7v-59.6c0-2.1,1.4-3.7,3.1-3.7h35.4c27.6,0,53.8-15.6,73.8-43.9l84.1-119
	c29.7-42.1,71-66.6,113.7-67.7c1.7,0,3.2,1.6,3.2,3.7v59.6c0,2-1.3,3.7-3,3.7c-26.5,1-51.6,16.5-70.9,43.9l-84.1,119
	C124.9,324.3,82.3,348.9,38.5,348.9z"/>
<g>
	<path d="M112.4,162.2l18.1,25.5c1.2,1.7,3.4,1.7,4.7,0l32.8-46.4c1-1.4,1-3.5,0-4.9L155.5,119c-30.6-43.2-73.2-68-117-68H3.1
		C1.3,51,0,52.7,0,54.7v59.8c0,2.1,1.4,3.7,3.1,3.7h35.4C66.1,118.2,92.3,133.9,112.4,162.2z"/>
	<path d="M239.4,237.8l-18.1-25.5c-1.2-1.7-3.4-1.7-4.7,0l-32.8,46.4c-1,1.4-1,3.5,0,4.9l12.4,17.6c29.7,42.1,71,66.6,113.7,67.7
		c1.7,0,3.2-1.6,3.2-3.7v-59.6c0-2-1.3-3.7-3-3.7C283.8,280.7,258.7,265.2,239.4,237.8z"/>
</g>
<path d="M309,143.8V25.2c0-3.5,4-5.6,6.9-3.5L398.2,81c2.4,1.7,2.4,5.3,0,7l-82.3,59.3C313,149.4,309,147.4,309,143.8z"/>
<path d="M309,375.1V256.5c0-3.5,4-5.6,6.9-3.5l82.3,59.3c2.4,1.7,2.4,5.3,0,7l-82.3,59.3C313,380.7,309,378.7,309,375.1z"/>
</svg>
