<?xml version="1.0" encoding="utf-8"?>
<!-- Generator: Adobe Illustrator 26.5.0, SVG Export Plug-In . SVG Version: 6.00 Build 0)  -->
<svg version="1.1" id="Vrstva_1" xmlns="http://www.w3.org/2000/svg" xmlns:xlink="http://www.w3.org/1999/xlink" x="0px" y="0px"
	 viewBox="0 0 400 400" style="enable-background:new 0 0 400 400;" xml:space="preserve">
<g>
	<polygon points="322,128.1 341.5,128.1 341.5,118.4 361,118.4 361,108.6 370.7,108.6 370.7,98.7 390.3,98.7 390.3,89 400,89 
		400,69.5 390.3,69.5 390.3,59.8 370.7,59.8 370.7,50 351.2,50 351.2,40.2 341.5,40.2 341.5,30.4 322,30.4 322,20.7 302.4,20.7 
		302.4,40.2 302.4,108.6 302.4,137.8 322,137.8 	"/>
	<g>
		<path d="M136.6,160.9c0-3.3,0-6.5,0-9.8c0-3.3,0-6.5,0-9.7c3.3,0,6.5,0,9.8,0c0-3.3,0-6.5,0-9.8c0-3.2,0-6.5,0-9.7
			c3.2,0,6.5,0,9.7,0c0-3.2,0-6.5,0-9.7c3.2,0,6.5,0,9.7,0c0-3.3,0-6.5,0-9.8c-3.2,0-6.4,0-9.6,0c0-3.2,0-6.5,0-9.7
			c-3.2,0-6.5,0-9.7,0c0-3.2,0-6.5,0-9.7c-3.3,0-6.6,0-9.9,0c0-3.2,0-6.5,0-9.7c-3.2,0-6.5,0-9.7,0c0-3.2,0-6.5,0-9.7
			c-6.5,0-13,0-19.5,0c-0.1-3.3,0.2-6.5-0.1-9.8c-8.2,0-22.4,0-29.1,0s-6,0-11.3,0c0.3-3.2,0-6.5,0.1-9.7c-19.1,0-38.1,0-57.2,0
			c0,3.2,0,6.5,0,9.7c-3.2,0.1-6.5-0.1-9.7,0.1c0-0.3,0,0,0,0c0,10.8,0,31.2,0,39.4c0,8.2,0,3.8,0,9.6c9.4-0.5,18.8-0.1,28.2-0.2
			c0,3.2,0,6.5,0,9.7c9.7,0,19.4,0,29.1,0c0,3.3,0,6.5,0,9.8c9.8,0,19.5,0,29.3,0c0,3.3,0,6.5,0,9.8c6.9,0,13.9,0,20.8,0
			c0,3.2,0,6.5,0,9.7c3.2,0,6.5,0,9.7,0c0,3.2,0,6.5,0,9.7c3.2,0,6.5,0,9.7,0c0,6.6,0,13.2,0,19.8c3.2,0,6.5,0,9.7,0
			C136.6,167.8,136.6,164.3,136.6,160.9z"/>
		<path d="M263.4,53.8c0,3.3,0,6.5,0,9.8c-9.8,0-19.5,0-29.3,0c0,3.2,0,6.5,0,9.7c-6.5,0-13,0-19.5,0c0,3.2,0,6.5,0,9.7
			c-3.2,0-6.5,0-9.7,0c0,3.2,0,6.5,0,9.7c-3.3,0-6.5,0-9.8,0c0,3.2,0,6.5,0,9.7c-3.3,0-6.5,0-9.8,0c0,3.3,0,6.5,0,9.8
			c-3.3,0-6.5,0-9.8,0c0,3.2,0,6.5,0,9.7c-3.2,0-6.5,0-9.7,0c0,3.2,0,6.5,0,9.7c-3.2,0-6.5,0-9.7,0c0,6.5,0,13,0,19.5
			c-3.3,0-6.5,0-9.8,0c0,9.8,0,19.5,0,29.3c-3.2,0-6.5,0-9.7,0c0,16.3,0,32.5,0,48.8c-3.3,0-6.5,0-9.8,0c0,6.5,0,12.9,0,19.4
			c-3.2,0-6.5,0-9.7,0c0,3.3,0,6.5,0,9.8c-3.2,0-6.5,0-9.7,0c0,3.2,0,6.5,0,9.7c-6.9,0-13.9,0-20.8,0c0,3.2,0,6.5,0,9.7
			c-9.8,0-19.5,0-29.3,0c0,3.3,0,6.5,0,9.8c-9.7,0-19.4,0-29.1,0c0,3.2,0,6.5,0,9.7c-9.4-0.1-18.8,0.2-28.2-0.2c0,4.7,0,1.9,0,8.7
			c0,6.7,0,32.3,0,38.3c0,6,0-1.1,0,2.3c3.1-0.5,6.2-0.1,9.3-0.2c0,3.2,0,6.5,0,9.7c19.2,0,38.4,0,57.6,0c0-3.2,0-6.5,0-9.7
			c13.5,0,26.9,0,40.4,0c0-3.2,0-6.5,0-9.7c6.5,0,13,0,19.5,0c0-3.2,0-6.5,0-9.7c3.3,0,6.5,0,9.8,0c0-3.2,0-6.5,0-9.7
			c3.3,0,6.5,0,9.8,0c0-3.3,0-6.5,0-9.8c3.2,0,6.5,0,9.7,0c0-3.2,0-6.5,0-9.7c3.3,0,6.5,0,9.8,0c0-3.2,0-6.5,0-9.7
			c3.2,0,6.5,0,9.7,0c0-3.2,0-6.5,0-9.7c3.2,0,6.5,0,9.7,0c0-6.5,0-13.1,0-19.6c3.3,0,6.5,0,9.8,0c0-6.5,0-12.9,0-19.4
			c3.3,0.1,6.5-0.2,9.8,0.2c0-6,0-3.2,0-11.3c0-8.1,0-27.3,0-37.5c3.2-0.4,6.5-0.1,9.7-0.2c0-9.8,0-19.5,0-29.3c3.2,0,6.5,0,9.7,0
			c0-3.2,0-6.5,0-9.7c3.2,0,6.5,0,9.7,0c0-3.2,0-6.5,0-9.7c3.2,0,6.5,0,9.7,0c0-3.2,0-6.5,0-9.7c9.8,0,19.5,0,29.3,0
			c0-3.3,0-6.5,0-9.8c9.8,0,19.6,0,29.4,0c0-22.8,0-45.6,0-68.4C289.4,53.8,276.4,53.8,263.4,53.8z"/>
		<path d="M273,277.8c0-3.3,0-6.5,0-9.8c-9.8,0-19.5,0-29.3,0c0-3.2,0-6.5,0-9.7c-3.2,0-6.5,0-9.7,0c0-3.2,0-6.5,0-9.7
			c-3.2,0-6.5,0-9.7,0c0-3.2,0-6.5,0-9.7c-3.2,0-6.4,0.1-9.6-0.1c0,1,0-0.9,0,0.7c0,1.7,0,7,0,9.4c-3.2,0.1-6.5,0-9.7,0.1
			c0,6.5,0,12.9,0,19.4c-3.3,0-6.6,0-9.9,0c0,3.5,0,6.2,0,9.9c0,3.7,0,5.3,0,10c0,4.7,0,13.5,0,18.9c3.3,0.2,6.5,0,9.8,0.1
			c0,3.2,0,6.5,0,9.7c3.2,0,6.5,0,9.7,0c0,3.2,0,6.5,0,9.7c6.5,0,13,0,19.5,0c0,3.2,0,6.5,0,9.7c9.8,0,19.5,0,29.3,0
			c0,3.3,0,6.5,0,9.8c13,0,26,0,39,0c0-22.8,0-45.6,0-68.4C292.6,277.8,282.8,277.8,273,277.8z"/>
	</g>
	<polygon points="322,364.5 341.5,364.5 341.5,354.7 351.2,354.7 351.2,344.9 370.7,344.9 370.7,335.1 390.3,335.1 390.3,325.4 
		400,325.4 400,305.9 390.3,305.9 390.3,296.2 370.7,296.2 370.7,286.3 361,286.3 361,276.5 341.5,276.5 341.5,266.8 322,266.8 
		322,257.1 302.4,257.1 302.4,286.3 302.4,354.7 302.4,374.2 322,374.2 	"/>
</g>
</svg>
